<svg xmlns="http://www.w3.org/2000/svg" width="540" height="710">
<path d="m520 312c-2-2-14-2-12-8 5-9-7-11-8-22-1-3 6-10 6-15l-3-23c0-2-5-1-5-2-6-12 1-12 0-23 0-6-12-15-17-19-12-8-14-7-8-20 4-8 10-14 10-24 0-7-6-18-8-27-6-25-1-10-19-19-14-7-3-8-5-15 0-2-7-17-11-19-5-1-9 8-10 8l-18-16c-4-4-6-12-14-13-2 0-14 0-22-4l-11 18c-5 7-9 7-15 9-9 4-18 5-20 7s-7 11-8 18c-4-2-15-9-19-9-10 0-9 6-10 6-1 1-6-3-7-5 0-2 2-4 7-10 2-2 8-5 10-8 1-4-2-12-1-17-7-1-17 12-22 6-3-3-9-7-14-6-6 0-11 4-12 4 0 0-1-7-5-10-4-2-13-1-13-1s4-4 5-9c2-9 0-21-1-20-4 5-8-1-15-5-2-1-9 2-13 3-7 1-4-2-9-4s-23-8-27-5c-12 9 19 28 18 38-1 7-22 12-22 12s2 8 4 8c13-2 3-3 8 12 1 2 15 11-1 10 3 6 6 8 10 11 4 2 6 1-1 3l1 3c-5 0-16-5-18-5-8 1-13 16-9 25l2 7c-6-3-17-14-17 0 10 0-5 22-10 1 12 1 3-8 0-12-6-7-3-6-17-5h-22c-6 2-11 7-12 10-2 3-6 18 10 23-7 1-5 13-6 18-1 14-7 24-9 39-1 9-20-5-19 5 0 4-3 10 0 12 5 3 11 6 14 1 8 8 1 13 4 21-6 2-9 6-13 10-2 4-6 1-7 7 0 1 7 3 6 6-2 7-25 8-25 8l1 4s-14-7-19-3c-11 7 0 17 3 25 3 9 6 15 0 23-5 7 0 12 0 12l-18 11c-1 6 4 8 9 7 1 3 4 7 2 12-10 2 0 9 3 14l2 5-1 9c3 5 7 1 9 5 3 5 3 15 3 15s-29 20-5 42c10 9 10 4 3 21-2 4-7 6-4 13 2 3 9 3 11 9 1 4 11 14 9 16-4 5 13-1 13-1 6 2 8 6 9 6l15 1 4-3c6-1 2 6 6 8 9 5 14 3 23 6 7 1 18 6 18 7l-13 17c-3 5-10 10-13 16-5 10-5 22-9 32-6 13-4 20-8 33l-2 13c1 5 5 13 6 14l16-2 11 3 7-6c7 0 7 6 14 6 5 0 8-3 8-3l-6-4c-5-9 10-13 12-13 2 1 3 8 8 10 6 3 8-1 14-1 8 1 12 8 9-4l-8-7 34 21c5 5 11 0 17 4 7 4 22 23 24 23 6-4 10-11 12-17 0-2-4-6-2-9l3 1c4 2 16 3 22 3l2 3c-2 5 7 6 14 6 3 0 14-1 18-4 5-4 10-10 14-12 7-3 32-1 34-3l5-7 13 6c5 0 7-6 12-6l4 5c5 7 18 22 17 10 0-3-2-5 0-8 4-6-8-8-8-10-2-5 6-9 3-15-9-16-20-18-3-30 14-9 31-11 28-31 6-7 10 4 16 2 7-3 7-15 5-21-1-5-13-21-18-18l-2 1c-11-8-21-29-35-34l-6 1c-5-1-9-13-12-17l-8-14c-9-3 3-18-3-27-3-4-12-6-15-9l-6-18 1-2c7 0 7 8 10 12l2-1c-1-11 13-21 23-22 4 0 10 2 13 1 5-2 1-7 3-8l8-2c5-3 19-11 20-13 4-10 18-3 20-11l2-2c7-1 12-5 18-8 14-7 3-5 3-8 1-3-5-4 0-9 0 0 5 3 8 2h4c9 8 7 26 18 10 10-14 10-43 1-52z" fill="none" stroke="#000" stroke-width="9" stroke-linejoin="bevel"/>
</svg>