<?xml version="1.0" encoding="UTF-8" standalone="no"?>
<!-- Copyright 2017 mathsisfun.com -->
<svg xmlns="http://www.w3.org/2000/svg" width="381.4" height="91.8" version="1.1">
<defs>
</defs>
<g transform="matrix(0.189751,0,0,0.189751,388,-144.493)">
<path style="overflow:visible; fill:#000080; stroke-width:2.1; stroke-opacity:0.48;" d="m -1522.2,1043.4 c -0.8,21.7 48,-0.3 8.3,14.8 -9.2,9.6 35.9,-29.9 20.1,-52.2 2.2,-62.9 -16.4,-135.7 25.6,-189.6 9.2,-21.7 108,-44.4 70.8,-10.5 -10.2,20.5 -67.2,22.4 -19.5,9.4 -54.9,27.7 -36.3,102.3 -39.1,152.4 6.8,45.8 1.4,104.6 -54,115.8 -26.6,19.2 -77,-38.8 -28.9,-36.1 5.6,-1.3 11.1,-2.6 16.7,-4 z"/>
<path style="overflow:visible; fill:#000080; stroke-width:2.1; stroke-opacity:0.48;" d="m -1530.6,933.8 c 18.3,-23.6 66.7,-40.2 102.2,-33.1 39.7,-19.5 11.5,22.3 -4.5,30 -21.3,-7.5 -98.9,16.9 -43.7,-2 10.4,-5.3 -23.2,15.7 -39.8,6.3 -4.7,-0.4 -9.5,-0.8 -14.2,-1.2 z"/>
</g>
<path style="overflow:visible; fill:#000080; stroke-width:1.13; stroke-opacity:0.48;" d="m 175.1,0 c 8.6,4 9.2,15.3 9.3,23.7 -0.1,10 -3.1,20.8 -11.4,27.2 -2.4,-0.9 -10.5,0 -5.1,-3.1 10,-8.6 10.5,-23.8 7.5,-35.8 -0.9,-5.7 -8.3,-5.6 -2.1,-9.9 0.6,-0.7 1.2,-1.4 1.8,-2.1 z"/>
<path style="overflow:visible; fill:#000080; stroke-width:1.13; stroke-opacity:0.48;" d="m 134.8,50.9 c -8.7,-4 -9.2,-15.3 -9.3,-23.7 0.1,-10 3.1,-20.8 11.4,-27.2 2.4,0.9 10.5,0.1 5.1,3.1 -10,8.6 -10.4,23.8 -7.5,35.8 0.9,5.7 8.3,5.6 2.1,10 -0.6,0.7 -1.2,1.4 -1.7,2.1 z"/>
<text x="-0.5" y="87.3" style="font-family:'Comic Sans MS'; font-size:15.9px; fill:#000080; stroke-width:0.54px;">function name</text>
<text x="179" y="87.3" style="font-family:'Comic Sans MS'; font-size:15.9px; overflow:visible; fill:#8d5fd3; stroke-width:1.46; stroke-dasharray:2.9, 8.8;">input</text>
<g transform="matrix(0.076815,-0.32202,-0.32202,-0.076815,329.29,-328.974)">
<path style="overflow:visible; fill:#000080; stroke-width:2.7; stroke-dasharray:5.4, 16.2;" d="m -1387.1,539.2 c 13.1,-22.1 35.4,-46.6 63.7,-41.1 12,2.7 30.9,-15.2 23.9,-9.8 11.6,-9.1 9.8,-30.4 22.2,-36.2 16.9,-7 -4.4,22.1 -6.3,29.3 -10.3,19.4 -31.8,32 -53.8,27.7 -19.2,3.2 -26.4,12.3 -30,17.3 -4.4,8.8 -10.2,11.7 -19.7,12.7 z"/>
<path style="overflow:visible; fill:#000080; stroke-width:2.7; stroke-dasharray:5.4, 16.2;" d="m -1302.3,465.6 c 7.9,-5.2 17.7,-16.1 5,-2.8 10.6,-6.7 16.1,-29.5 29.2,-24.3 -0.5,13.8 1,27.8 6,40.9 -8.8,9.8 -13.6,6.3 -14.5,-5.9 -2.3,-8.9 -4.3,-19.5 -2.4,-28 14.8,-4.4 10,-5.2 2.2,7.6 -5.6,4.8 -28.4,33.6 -26.5,18.6 0.4,-2 0.8,-4.1 1.1,-6.1 z"/>
</g>
<path style="overflow:visible; fill:#8d5fd3; stroke-width:1.46; stroke-dasharray:2.9, 8.8;" d="m 156.6,51 c -0.3,9.3 2.4,19.8 11.5,24.2 3.2,2.4 10.5,1.7 5.6,6.5 -11.2,-2.3 -20.3,-12.3 -20.5,-24 -1.1,-3.9 -0.5,-5.7 3.5,-6.7 z"/>
<path style="overflow:visible; fill:#8d5fd3; stroke-width:1.46; stroke-dasharray:2.9, 8.8;" d="m 156.6,51 c 1.8,4.1 4.8,7.5 8.4,10.2 -2.5,5.7 -6.1,0.4 -8.6,-2.6 -2.6,-3.6 -4.8,-5.2 0.2,-7.7 z"/>
<path style="overflow:visible; fill:#8d5fd3; stroke-width:1.46; stroke-dasharray:2.9, 8.8;" d="m 145.5,64.2 c 2.8,-3.5 5.9,-7 7,-11.5 5.8,-3.1 3.3,2 1.4,5.3 -2.2,3.3 -3.9,6.7 -8.4,6.2 z"/>
<path style="overflow:visible; fill:#b3defd; stroke-width:1.46; stroke-dasharray:2.9, 8.8;" d="m 210.5,17.3 c 8.2,0.9 16.5,-0.2 24.7,0.2 -1.8,4.4 -3.9,8.4 -9.6,6.5 -5.3,-0.4 -15.6,1.7 -18.2,-1.2 1,-1.8 2,-3.7 3.1,-5.5 z"/>
<path style="overflow:visible; fill:#b3defd; stroke-width:1.46; stroke-dasharray:2.9, 8.8;" d="m 207.2,28.2 c 8.4,-0.4 16.7,-0.4 25.1,-0.8 -1.8,2.2 -1.4,7.6 -5.2,6.9 -7.6,0.1 -15.2,0.3 -22.9,0.7 1,-2.2 1.9,-4.5 2.9,-6.7 z"/>
<g transform="matrix(0.331055,0,0,0.331055,318.56,-165.038)">
<path style="overflow:visible; fill:#8d5fd3; stroke-width:2.1; stroke-opacity:0.48;" d="m -489.4,549.6 c 19,28.3 -11.3,61.5 -40.2,64 -17.8,-1 2.5,-9.3 9.9,-18.6 7.4,-9.4 24.2,-43.8 -12.3,-33 3.5,-10.9 26.7,-28.8 42.6,-12.3 z"/>
<path style="overflow:visible; fill:#8d5fd3; stroke-width:2.1; stroke-opacity:0.48;" d="m -462.3,600.8 c 24,-1.1 -1.1,17.3 -7.4,15.7 -35.7,-2.7 -29.5,-59.8 -7.9,-71.1 21.6,-11.3 34.7,-7.6 14.3,8.4 -20.4,16 -23.1,48.2 0.9,47.1 z"/>
</g>
<path style="overflow:visible; fill:#f0a513; stroke-width:1.46; stroke-dasharray:2.9, 8.8;" d="m 285.7,4.3 c 3.9,-2.5 12.3,-2.3 12.2,3.8 -1.2,6.1 -7.4,9.6 -12.9,11.4 -0.5,-6.9 7.2,-6.3 11.9,-5.2 4.7,0.4 4.1,2.9 1.1,5.5 -2.3,-0.2 -5.7,-1.9 -8.5,-1.3 -6.2,3.2 -4.9,-4.7 -0.1,-5.3 3.4,-1.8 4.2,-3.1 2.1,-0.9 3.7,-2.5 0.5,-6.1 -3.1,-4.5 -5.8,2.7 -3.4,1.1 -2.6,-3.5 z"/>
<path style="overflow:visible; fill:#f0a513; stroke-width:1.46; stroke-dasharray:2.9, 8.8;" d="m 251.8,52 c 0.9,4.5 5.8,5.4 9.5,4.2 6.3,-0.5 15.1,-0.2 18.3,6.3 0.9,2.2 1.5,5.5 -1.8,5.7 -2.4,1.5 -0.3,-2.9 -1.7,-4.1 -3.5,-4.9 -10.8,-4.7 -16.2,-4.2 -4.6,1.5 -10.1,-0.7 -11.3,-5.6 1.1,-0.8 2.2,-1.5 3.2,-2.3 z"/>
<path style="overflow:visible; fill:#f0a513; stroke-width:1.46; stroke-dasharray:2.9, 8.8;" d="m 305,50.6 c -0.5,4.5 -5.3,5.9 -9.1,4.9 -6.3,0 -15,1.1 -17.7,7.8 -0.8,2.3 -1.3,5.5 2.2,5.5 2.7,1.3 -0.5,-2.9 1.1,-4.2 3,-5.2 10.3,-5.6 15.8,-5.6 4.7,1.1 10,-1.5 10.8,-6.5 -1,-0.7 -2,-1.3 -3,-2 z"/>
<text x="272.5" y="87.3" style="font-family:'Comic Sans MS'; font-size:15.9px; overflow:visible; fill:#f0a513; stroke-width:1.46; stroke-dasharray:2.9, 8.8;">what to output</text>
<g style="fill:#f0a513;" transform="matrix(0.331055,0,0,0.331055,432.56,-165.038)">
<path style="overflow:visible; fill:#f0a513; stroke-width:2.1; stroke-opacity:0.48;" d="m -489.4,549.6 c 19,28.3 -11.3,61.5 -40.2,64 -17.8,-1 2.5,-9.3 9.9,-18.6 7.4,-9.4 24.2,-43.8 -12.3,-33 3.5,-10.9 26.7,-28.8 42.6,-12.3 z"/>
<path style="overflow:visible; fill:#f0a513; stroke-width:2.1; stroke-opacity:0.48;" d="m -462.3,600.8 c 24,-1.1 -1.1,17.3 -7.4,15.7 -35.7,-2.7 -29.5,-59.8 -7.9,-71.1 21.6,-11.3 34.7,-7.6 14.3,8.4 -20.4,16 -23.1,48.2 0.9,47.1 z"/>
</g>
</svg>
